<svg width="32" height="32" viewBox="0 0 32 32" fill="none" xmlns="http://www.w3.org/2000/svg">
<path d="M26.5842 10.6667H28.0002C28.7074 10.6667 29.3857 10.9476 29.8858 11.4477C30.3859 11.9478 30.6668 12.6261 30.6668 13.3333V18.6667C30.6668 19.3739 30.3859 20.0522 29.8858 20.5523C29.3857 21.0524 28.7074 21.3333 28.0002 21.3333H26.5842C26.2591 23.9111 25.0045 26.2816 23.0558 28C21.1071 29.7184 18.5983 30.6666 16.0002 30.6667V28C18.1219 28 20.1567 27.1572 21.657 25.6569C23.1573 24.1566 24.0002 22.1217 24.0002 20V12C24.0002 9.87828 23.1573 7.84345 21.657 6.34316C20.1567 4.84286 18.1219 4.00001 16.0002 4.00001C13.8784 4.00001 11.8436 4.84286 10.3433 6.34316C8.84302 7.84345 8.00016 9.87828 8.00016 12V21.3333H4.00016C3.29292 21.3333 2.61464 21.0524 2.11454 20.5523C1.61445 20.0522 1.3335 19.3739 1.3335 18.6667V13.3333C1.3335 12.6261 1.61445 11.9478 2.11454 11.4477C2.61464 10.9476 3.29292 10.6667 4.00016 10.6667H5.41616C5.74154 8.0892 6.99627 5.71904 8.94493 4.00091C10.8936 2.28278 13.4022 1.33478 16.0002 1.33478C18.5981 1.33478 21.1067 2.28278 23.0554 4.00091C25.0041 5.71904 26.2588 8.0892 26.5842 10.6667ZM4.00016 13.3333V18.6667H5.3335V13.3333H4.00016ZM26.6668 13.3333V18.6667H28.0002V13.3333H26.6668ZM10.3468 21.0467L11.7602 18.7853C13.0309 19.5814 14.5007 20.0024 16.0002 20C17.4997 20.0024 18.9694 19.5814 20.2402 18.7853L21.6535 21.0467C19.9592 22.1082 17.9995 22.6697 16.0002 22.6667C14.0008 22.6697 12.0411 22.1082 10.3468 21.0467Z" fill="black"/>
</svg>
