<svg width="32" height="32" viewBox="0 0 32 32" fill="none" xmlns="http://www.w3.org/2000/svg">
<path d="M29.5253 4.40265C29.088 3.67331 28.6386 3.17465 28.308 2.89865C28.1035 2.73638 27.8436 2.66052 27.5839 2.68727C27.3242 2.71403 27.0853 2.84127 26.9182 3.04183C26.751 3.24238 26.669 3.50033 26.6895 3.76059C26.71 4.02084 26.8315 4.26275 27.028 4.43465C27.196 4.57598 27.4973 4.91065 27.8093 5.43065C28.3453 6.32398 28.6666 7.39731 28.6666 8.66665C28.6666 9.93598 28.3453 11.0106 27.8093 11.9026C27.4973 12.4226 27.196 12.7573 27.0266 12.8986C26.8301 13.0705 26.7087 13.3125 26.6882 13.5727C26.6676 13.833 26.7497 14.0909 26.9168 14.2915C27.084 14.492 27.3229 14.6193 27.5826 14.646C27.8423 14.6728 28.1021 14.5969 28.3066 14.4346C28.6386 14.1586 29.0866 13.6613 29.5253 12.9306C30.24 11.74 30.6666 10.3146 30.6666 8.66665C30.6666 7.01865 30.2386 5.59331 29.524 4.40265H29.5253Z" fill="black"/>
<path d="M26.5001 5.8613C26.2572 5.48268 25.9536 5.14664 25.6015 4.86663C25.3893 4.7075 25.1226 4.63917 24.86 4.67668C24.5975 4.71419 24.3606 4.85446 24.2015 5.06663C24.0423 5.2788 23.974 5.5455 24.0115 5.80805C24.049 6.0706 24.1893 6.3075 24.4015 6.46663C24.4828 6.52796 24.6548 6.69996 24.8361 6.97196C25.1468 7.43863 25.3335 7.99863 25.3335 8.66663C25.3335 9.3333 25.1468 9.8933 24.8361 10.3613C24.7172 10.5505 24.5707 10.7208 24.4015 10.8666L24.2895 10.964C24.1132 11.1437 24.0111 11.3833 24.0038 11.635C23.9964 11.8866 24.0843 12.1318 24.2497 12.3215C24.4152 12.5113 24.6462 12.6316 24.8965 12.6585C25.1469 12.6854 25.3981 12.6169 25.6001 12.4666C25.8508 12.2786 26.1788 11.9493 26.4988 11.472C27.0518 10.6416 27.3426 9.66425 27.3335 8.66663C27.3335 7.58396 27.0215 6.64396 26.5001 5.8613Z" fill="black"/>
<path d="M22.6667 4.99999C22.6666 4.79665 22.6045 4.59818 22.4887 4.43103C22.3729 4.26388 22.2089 4.13601 22.0186 4.06445C21.8282 3.9929 21.6206 3.98106 21.4234 4.03053C21.2262 4.08 21.0487 4.18842 20.9147 4.34133L18.88 6.66666H17C16.7348 6.66666 16.4804 6.77202 16.2929 6.95955C16.1054 7.14709 16 7.40144 16 7.66666V9.66666C16 10.2187 16.448 10.6667 17 10.6667H18.88L20.9147 12.992C21.0487 13.1449 21.2262 13.2533 21.4234 13.3028C21.6206 13.3523 21.8282 13.3404 22.0186 13.2689C22.2089 13.1973 22.3729 13.0694 22.4887 12.9023C22.6045 12.7351 22.6666 12.5367 22.6667 12.3333V4.99999Z" fill="black"/>
<path d="M15.9346 5.33465H5.01058C4.39174 5.33465 3.79825 5.58048 3.36066 6.01806C2.92308 6.45565 2.67725 7.04914 2.67725 7.66798V24.328C2.67725 25.6173 3.72125 26.6613 5.01058 26.6613H15.0066V26.6653H27.0039C27.6228 26.6653 28.2162 26.4195 28.6538 25.9819C29.0914 25.5443 29.3372 24.9508 29.3372 24.332V15.3053C29.2772 15.3586 29.2186 15.412 29.1612 15.4586C28.6332 15.8986 27.9679 16.0666 27.3372 15.9773V24.3306C27.3372 24.4191 27.3021 24.5038 27.2396 24.5663C27.1771 24.6289 27.0923 24.664 27.0039 24.664H17.0066V12H15.9999C15.8124 12.0001 15.627 11.9607 15.4558 11.8841C15.2846 11.8076 15.1315 11.6958 15.0066 11.556V24.6626H5.01058C4.92217 24.6626 4.83739 24.6275 4.77488 24.565C4.71236 24.5025 4.67725 24.4177 4.67725 24.3293V7.66665C4.67725 7.57824 4.71236 7.49346 4.77488 7.43094C4.83739 7.36843 4.92217 7.33331 5.01058 7.33331H14.6666V6.66665C14.6662 6.32428 14.7974 5.99486 15.0332 5.74665C15.2691 5.49843 15.5913 5.35043 15.9332 5.33331L15.9346 5.33465Z" fill="black"/>
<path d="M21.6628 20.6666H19.6628L19.5268 20.676C19.2759 20.7105 19.0475 20.8389 18.8876 21.0353C18.7277 21.2317 18.6483 21.4814 18.6654 21.7341C18.6825 21.9868 18.7948 22.2236 18.9797 22.3966C19.1645 22.5697 19.4082 22.6662 19.6615 22.6666H21.6615L21.7975 22.6573C22.0483 22.6228 22.2768 22.4944 22.4367 22.298C22.5966 22.1016 22.676 21.8518 22.6589 21.5991C22.6418 21.3465 22.5295 21.1097 22.3446 20.9366C22.1597 20.7635 21.916 20.667 21.6628 20.6666Z" fill="black"/>
<path d="M10.3317 20.6666H12.3344C12.5876 20.667 12.8313 20.7635 13.0162 20.9366C13.2011 21.1097 13.3134 21.3465 13.3305 21.5991C13.3476 21.8518 13.2682 22.1016 13.1083 22.298C12.9484 22.4944 12.7199 22.6228 12.4691 22.6573L12.3344 22.6666H10.3317C10.0784 22.6665 9.83447 22.5703 9.64934 22.3973C9.4642 22.2244 9.35163 21.9876 9.33436 21.7348C9.31709 21.482 9.39641 21.2321 9.5563 21.0356C9.71619 20.839 9.94473 20.7105 10.1957 20.676L10.3317 20.6666Z" fill="black"/>
</svg>
