<svg width="29" height="21" viewBox="0 0 29 21" fill="none" xmlns="http://www.w3.org/2000/svg">
<path d="M12.768 3.104L9.096 8.72C10.2 9.104 11.112 9.8 11.832 10.808C12.552 11.768 12.912 12.944 12.912 14.336C12.912 16.064 12.312 17.552 11.112 18.8C9.912 20 8.448 20.6 6.72 20.6C4.992 20.6 3.504 20 2.256 18.8C1.056 17.552 0.456 16.064 0.456 14.336C0.456 13.424 0.6 12.608 0.888 11.888C1.224 11.168 1.68 10.4 2.256 9.584L8.52 0.295996L12.768 3.104ZM28.536 3.104L24.864 8.72C25.968 9.104 26.88 9.8 27.6 10.808C28.32 11.768 28.68 12.944 28.68 14.336C28.68 16.064 28.08 17.552 26.88 18.8C25.68 20 24.216 20.6 22.488 20.6C20.76 20.6 19.272 20 18.024 18.8C16.824 17.552 16.224 16.064 16.224 14.336C16.224 13.424 16.368 12.608 16.656 11.888C16.992 11.168 17.448 10.4 18.024 9.584L24.288 0.295996L28.536 3.104Z" fill="#C90404"/>
</svg>
