<svg width="32" height="32" viewBox="0 0 32 32" fill="none" xmlns="http://www.w3.org/2000/svg">
<path fill-rule="evenodd" clip-rule="evenodd" d="M18.6668 9.33337C18.3132 9.33337 17.9741 9.47385 17.724 9.7239C17.474 9.97395 17.3335 10.3131 17.3335 10.6667V21.3334C17.3335 21.687 17.474 22.0261 17.724 22.2762C17.9741 22.5262 18.3132 22.6667 18.6668 22.6667H24.0002C24.3538 22.6667 24.6929 22.5262 24.943 22.2762C25.193 22.0261 25.3335 21.687 25.3335 21.3334V10.6667C25.3335 10.3131 25.193 9.97395 24.943 9.7239C24.6929 9.47385 24.3538 9.33337 24.0002 9.33337H18.6668ZM22.6668 12H20.0002V20H22.6668V12Z" fill="#C90404"/>
<path d="M8.00033 9.33337C7.6467 9.33337 7.30757 9.47385 7.05752 9.7239C6.80747 9.97395 6.66699 10.3131 6.66699 10.6667C6.66699 11.0203 6.80747 11.3595 7.05752 11.6095C7.30757 11.8596 7.6467 12 8.00033 12H13.3337C13.6873 12 14.0264 11.8596 14.2765 11.6095C14.5265 11.3595 14.667 11.0203 14.667 10.6667C14.667 10.3131 14.5265 9.97395 14.2765 9.7239C14.0264 9.47385 13.6873 9.33337 13.3337 9.33337H8.00033Z" fill="#C90404"/>
<path d="M8.00033 14.6666C7.6467 14.6666 7.30757 14.8071 7.05752 15.0572C6.80747 15.3072 6.66699 15.6463 6.66699 16C6.66699 16.3536 6.80747 16.6927 7.05752 16.9428C7.30757 17.1928 7.6467 17.3333 8.00033 17.3333H13.3337C13.6873 17.3333 14.0264 17.1928 14.2765 16.9428C14.5265 16.6927 14.667 16.3536 14.667 16C14.667 15.6463 14.5265 15.3072 14.2765 15.0572C14.0264 14.8071 13.6873 14.6666 13.3337 14.6666H8.00033Z" fill="#C90404"/>
<path d="M6.66699 21.3333C6.66699 20.9797 6.80747 20.6406 7.05752 20.3905C7.30757 20.1405 7.6467 20 8.00033 20H13.3337C13.6873 20 14.0264 20.1405 14.2765 20.3905C14.5265 20.6406 14.667 20.9797 14.667 21.3333C14.667 21.687 14.5265 22.0261 14.2765 22.2761C14.0264 22.5262 13.6873 22.6667 13.3337 22.6667H8.00033C7.6467 22.6667 7.30757 22.5262 7.05752 22.2761C6.80747 22.0261 6.66699 21.687 6.66699 21.3333Z" fill="#C90404"/>
<path fill-rule="evenodd" clip-rule="evenodd" d="M5.3335 4C4.27263 4 3.25521 4.42143 2.50507 5.17157C1.75492 5.92172 1.3335 6.93913 1.3335 8V24C1.3335 25.0609 1.75492 26.0783 2.50507 26.8284C3.25521 27.5786 4.27263 28 5.3335 28H26.6668C27.7277 28 28.7451 27.5786 29.4953 26.8284C30.2454 26.0783 30.6668 25.0609 30.6668 24V8C30.6668 6.93913 30.2454 5.92172 29.4953 5.17157C28.7451 4.42143 27.7277 4 26.6668 4H5.3335ZM26.6668 6.66667H5.3335C4.97987 6.66667 4.64074 6.80714 4.39069 7.05719C4.14064 7.30724 4.00016 7.64638 4.00016 8V24C4.00016 24.3536 4.14064 24.6928 4.39069 24.9428C4.64074 25.1929 4.97987 25.3333 5.3335 25.3333H26.6668C27.0204 25.3333 27.3596 25.1929 27.6096 24.9428C27.8597 24.6928 28.0002 24.3536 28.0002 24V8C28.0002 7.64638 27.8597 7.30724 27.6096 7.05719C27.3596 6.80714 27.0204 6.66667 26.6668 6.66667Z" fill="#C90404"/>
</svg>
