<svg width="32" height="32" viewBox="0 0 32 32" fill="none" xmlns="http://www.w3.org/2000/svg">
<path d="M7.43317 2.76536C7.60292 2.84698 7.74617 2.97488 7.84643 3.13434C7.94668 3.2938 7.99986 3.47833 7.99984 3.66669C7.99984 4.77336 8.41584 5.41069 8.93717 6.18669L8.97584 6.24269C9.41851 6.90136 9.99984 7.76402 9.99984 9.00002C9.99984 10.2614 9.36384 11.3734 8.39451 12.0334C8.64917 12.2467 8.87451 12.5094 9.06917 12.824C9.70384 13.8507 9.99984 15.42 9.99984 17.6734C9.99984 19.956 9.69317 22.6974 9.19317 24.8867C8.94517 25.9747 8.63717 26.9787 8.27051 27.732C8.08784 28.1067 7.86517 28.472 7.59051 28.7587C7.31584 29.04 6.89317 29.34 6.33317 29.34C5.77317 29.34 5.35051 29.04 5.07717 28.7587C4.79879 28.4537 4.56939 28.1073 4.39717 27.732C4.02917 26.9774 3.72117 25.9747 3.47317 24.8854C2.9531 22.5157 2.68274 20.098 2.66651 17.672C2.66651 15.4187 2.96251 13.8507 3.59717 12.824C3.77823 12.526 4.00603 12.2591 4.27184 12.0334C3.77687 11.6973 3.37175 11.2451 3.09191 10.7163C2.81206 10.1876 2.666 9.59829 2.66651 9.00002C2.66651 8.50936 2.66651 7.66536 3.17717 6.57602C3.67717 5.50936 4.62784 4.28402 6.37451 2.88536C6.52172 2.7676 6.69921 2.69386 6.88653 2.67262C7.07384 2.65139 7.26334 2.68354 7.43317 2.76536V2.76536ZM4.66651 8.99869V9.00002C4.66651 9.44205 4.8421 9.86597 5.15466 10.1785C5.46722 10.4911 5.89114 10.6667 6.33317 10.6667C6.7752 10.6667 7.19912 10.4911 7.51168 10.1785C7.82424 9.86597 7.99984 9.44205 7.99984 9.00002C7.99984 8.41469 7.75317 8.00936 7.27717 7.30136L7.26117 7.27736C6.95584 6.82402 6.59451 6.28669 6.33851 5.59736C5.61451 6.33336 5.21451 6.94402 4.98917 7.42402C4.66651 8.11202 4.66651 8.60136 4.66651 8.99736V8.99869ZM5.29851 13.8747C4.96784 14.4107 4.66651 15.5094 4.66651 17.6734C4.66651 19.808 4.95717 22.4 5.42251 24.4414C5.65717 25.468 5.92384 26.3014 6.19451 26.856C6.24384 26.9587 6.29051 27.044 6.33317 27.116C6.37584 27.044 6.42251 26.9587 6.47184 26.856C6.74251 26.3014 7.00917 25.4667 7.24384 24.4414C7.71051 22.4014 7.99984 19.8094 7.99984 17.6734C7.99984 15.5094 7.69851 14.4107 7.36784 13.8747C7.26811 13.6942 7.11738 13.5472 6.93451 13.452C6.74515 13.3696 6.53952 13.3313 6.33317 13.34C6.06651 13.34 5.87584 13.3814 5.73184 13.452C5.54896 13.5472 5.39823 13.6942 5.29851 13.8747V13.8747ZM13.3332 19.8907C12.6268 19.7722 11.9397 19.5587 11.2905 19.256C11.3295 18.4998 11.3406 17.7424 11.3238 16.9854C11.9252 17.3894 12.6038 17.6867 13.3332 17.852V14C13.3332 13.4696 13.5439 12.9609 13.919 12.5858C14.294 12.2107 14.8027 12 15.3332 12H20.6665C20.6664 10.8809 20.3534 9.78419 19.7628 8.83367C19.1722 7.88315 18.3275 7.11675 17.3242 6.62106C16.3209 6.12537 15.1989 5.92015 14.0851 6.02859C12.9713 6.13702 11.91 6.55479 11.0212 7.23469C10.7545 6.49736 10.3745 5.93336 10.1105 5.54136L10.0572 5.46136C11.2551 4.61688 12.662 4.11774 14.1243 4.01841C15.5866 3.91908 17.0481 4.22338 18.3493 4.89809C19.6504 5.57281 20.7412 6.592 21.5025 7.84442C22.2639 9.09684 22.6665 10.5343 22.6665 12H27.3332C27.8636 12 28.3723 12.2107 28.7474 12.5858C29.1225 12.9609 29.3332 13.4696 29.3332 14V26C29.3332 26.5305 29.1225 27.0392 28.7474 27.4142C28.3723 27.7893 27.8636 28 27.3332 28H15.3332C14.8027 28 14.294 27.7893 13.919 27.4142C13.5439 27.0392 13.3332 26.5305 13.3332 26V19.8894V19.8907ZM15.3332 19.9747V26.0014H27.3332V14.0014H22.4132C21.9978 15.608 21.0933 17.0459 19.8249 18.1161C18.5565 19.1862 16.9869 19.8357 15.3332 19.9747V19.9747ZM20.3252 14.0014H15.3332V17.9654C16.4534 17.8398 17.5157 17.4014 18.3985 16.7004C19.2813 15.9994 19.949 15.064 20.3252 14.0014V14.0014Z" fill="#C90404"/>
</svg>
