<svg width="32" height="32" viewBox="0 0 32 32" fill="none" xmlns="http://www.w3.org/2000/svg">
<path d="M19 24H23V28H19V24Z" fill="#C90404"/>
<path d="M26 24H30V28H26V24Z" fill="#C90404"/>
<path d="M19 17H23V21H19V17Z" fill="#C90404"/>
<path d="M26 17H30V21H26V17Z" fill="#C90404"/>
<path d="M17 24H4V10H28V15H30V10C29.9995 9.46973 29.7886 8.96133 29.4136 8.58637C29.0387 8.21141 28.5303 8.00053 28 8H22V4C21.9995 3.46973 21.7886 2.96133 21.4136 2.58637C21.0387 2.21141 20.5303 2.00053 20 2H12C11.4697 2.00053 10.9613 2.21141 10.5864 2.58637C10.2114 2.96133 10.0005 3.46973 10 4V8H4C3.46973 8.00053 2.96133 8.21141 2.58637 8.58637C2.21141 8.96133 2.00053 9.46973 2 10V24C2.00053 24.5303 2.21141 25.0387 2.58637 25.4136C2.96133 25.7886 3.46973 25.9995 4 26H17V24ZM12 4H20V8H12V4Z" fill="#C90404"/>
</svg>
