<svg xmlns="http://www.w3.org/2000/svg" width="203" height="62" viewBox="0 0 203 62">
    <defs>
        <linearGradient id="offfrp71oa" x1="77.859%" x2="18.631%" y1="74.746%" y2="6.403%">
            <stop offset="10%" stop-color="#F7941E"/>
            <stop offset="90%" stop-color="#EF4136"/>
        </linearGradient>
        <linearGradient id="9r05e4g7zb" x1="34.891%" x2="74.921%" y1="78.413%" y2="21.235%">
            <stop offset="10%" stop-color="#00AEEF"/>
            <stop offset="90%" stop-color="#2B3990"/>
        </linearGradient>
    </defs>
    <g fill="none" fill-rule="evenodd">
        <g fill-rule="nonzero">
            <g>
                <g>
                    <path fill="url(#offfrp71oa)" d="M27 62l7.75-7.688c4.25-4.216 4.25-11.16 0-15.376L27 31.248 11.5 46.624 27 62z" transform="translate(-198 -2715) translate(197 2715) translate(.68)"/>
                    <path fill="url(#9r05e4g7zb)" d="M11.5 15.872L3.75 23.56c-4.25 4.216-4.25 11.16 0 15.376l7.75 7.688 7.75 7.688c-4.25-4.216-4.25-11.16 0-15.376L27 31.248l7.75-7.688C39 19.344 39 12.4 34.75 8.184L27 .496 11.5 15.872z" transform="translate(-198 -2715) translate(197 2715) translate(.68)"/>
                </g>
                <g fill="#000">
                    <path d="M.745 18.636l1.49-3.19c1.49.981 3.477 1.472 5.463 1.472 2.235 0 2.98-.49 2.98-1.473 0-2.454-9.685 0-9.685-6.136 0-2.945 2.732-5.154 7.45-5.154 2.235 0 4.47.49 6.209 1.472l-1.49 3.191c-1.49-.982-3.229-1.227-4.47-1.227-1.987 0-2.98.736-2.98 1.473 0 2.7 9.685 0 9.685 6.136 0 2.945-2.732 4.91-7.45 4.91-2.98.245-5.712-.492-7.202-1.474zM44.7 11.027v9.082h-4.47v-8.345c0-2.455-1.242-3.682-2.98-3.682-1.987 0-3.477 1.227-3.477 4.173v7.854h-4.47v-8.345c0-2.455-.993-3.682-2.98-3.682-1.986 0-3.476 1.227-3.476 4.173v7.854h-4.47V4.4h3.973v1.964C23.592 5.136 25.33 4.4 27.317 4.4c2.235 0 3.973.736 5.215 2.455C33.773 5.136 35.76 4.4 38.243 4.4c3.725-.245 6.457 1.964 6.457 6.627zM62.828 11.273v8.836h-4.221v-1.964c-.745 1.473-2.484 2.21-4.719 2.21-3.725 0-5.96-1.964-5.96-4.664 0-2.7 1.987-4.664 6.705-4.664h3.725c0-1.963-1.241-3.19-3.725-3.19-1.738 0-3.476.49-4.47 1.472l-1.738-3.19c1.738-1.228 4.222-1.964 6.705-1.964 4.967 0 7.698 2.209 7.698 7.118zM58.11 15.2v-1.718h-3.228c-2.235 0-2.732.736-2.732 1.718 0 1.227.993 1.964 2.483 1.964 1.739 0 2.98-.491 3.477-1.964zM75.742 4.155v4.172h-.994c-2.483 0-4.221 1.473-4.221 4.418v7.364h-4.47V4.4h4.47v1.964c.993-1.473 2.98-2.21 5.215-2.21zM90.393 19.373c-.993.736-2.235.982-3.725.982-3.725 0-5.96-1.964-5.96-5.646V8.327h-2.483V4.891h2.483V.964h4.47V4.89h3.974v3.436h-3.974v6.382c0 1.227.745 1.964 1.987 1.964.745 0 1.242-.246 1.738-.491l1.49 3.19zM109.267 4.4v13.01c0 5.89-3.229 8.59-8.94 8.59-2.98 0-5.96-.736-7.699-2.21l1.739-3.19c1.241.982 3.476 1.718 5.711 1.718 3.229 0 4.719-1.473 4.719-4.173v-.736c-1.242 1.227-2.98 1.964-4.967 1.964-4.47 0-7.947-2.946-7.947-7.61 0-4.663 3.477-7.608 7.947-7.608 2.235 0 3.973.736 5.215 2.209V4.4h4.222zm-4.47 7.364c0-2.21-1.739-3.928-4.222-3.928-2.483 0-4.222 1.473-4.222 3.928 0 2.209 1.739 3.927 4.222 3.927 2.483 0 4.222-1.718 4.222-3.927zM111.75 12.255c0-4.664 3.725-8.1 8.692-8.1 4.966 0 8.691 3.436 8.691 8.1 0 4.663-3.725 8.1-8.691 8.1-4.967 0-8.692-3.437-8.692-8.1zm12.913 0c0-2.7-1.738-4.419-3.973-4.419s-3.973 1.719-3.973 4.419c0 2.7 1.738 4.418 3.973 4.418s3.973-1.718 3.973-4.418zM148.007 4.4L141.302 20.109 136.583 20.109 129.878 4.4 134.597 4.4 139.067 14.955 143.537 4.4z" transform="translate(-198 -2715) translate(197 2715) translate(55.68 18)"/>
                </g>
            </g>
        </g>
    </g>
</svg>
